<svg width="209" height="91" viewBox="0 0 209 91" fill="none" xmlns="http://www.w3.org/2000/svg">
<path d="M154.156 83.8047C154.156 84.0859 154.105 84.3516 154.004 84.6016C153.902 84.8438 153.762 85.0547 153.582 85.2344C153.402 85.4141 153.191 85.5547 152.949 85.6562C152.707 85.7656 152.445 85.8203 152.164 85.8203C151.891 85.8203 151.629 85.7656 151.379 85.6562C151.137 85.5547 150.922 85.4141 150.734 85.2344C150.555 85.0547 150.41 84.8438 150.301 84.6016C150.199 84.3516 150.148 84.0859 150.148 83.8047C150.148 83.5312 150.199 83.2734 150.301 83.0312C150.41 82.7891 150.555 82.5781 150.734 82.3984C150.922 82.2188 151.137 82.0781 151.379 81.9766C151.629 81.8672 151.891 81.8125 152.164 81.8125C152.445 81.8125 152.707 81.8672 152.949 81.9766C153.191 82.0781 153.402 82.2188 153.582 82.3984C153.762 82.5781 153.902 82.7891 154.004 83.0312C154.105 83.2734 154.156 83.5312 154.156 83.8047ZM160.25 71.5586V78.2852H163.613C164.074 78.2852 164.508 78.1992 164.914 78.0273C165.32 77.8477 165.676 77.6055 165.98 77.3008C166.285 76.9961 166.523 76.6406 166.695 76.2344C166.875 75.8203 166.965 75.3828 166.965 74.9219C166.965 74.4609 166.875 74.0273 166.695 73.6211C166.523 73.207 166.285 72.8477 165.98 72.543C165.676 72.2383 165.32 72 164.914 71.8281C164.508 71.6484 164.074 71.5586 163.613 71.5586H160.25ZM160.25 85H156.887V68.1953H163.613C164.23 68.1953 164.824 68.2773 165.395 68.4414C165.965 68.5977 166.496 68.8242 166.988 69.1211C167.488 69.4102 167.941 69.7617 168.348 70.1758C168.762 70.582 169.113 71.0352 169.402 71.5352C169.699 72.0352 169.926 72.5703 170.082 73.1406C170.246 73.7109 170.328 74.3047 170.328 74.9219C170.328 75.8438 170.152 76.7148 169.801 77.5352C169.449 78.3477 168.969 79.0586 168.359 79.668C167.75 80.2773 167.035 80.7578 166.215 81.1094C165.402 81.4609 164.535 81.6367 163.613 81.6367H160.25V85ZM175.672 71.5586V78.2852H179.035C179.496 78.2852 179.93 78.1992 180.336 78.0273C180.742 77.8477 181.098 77.6055 181.402 77.3008C181.707 76.9961 181.945 76.6406 182.117 76.2344C182.297 75.8203 182.387 75.3828 182.387 74.9219C182.387 74.4609 182.297 74.0273 182.117 73.6211C181.945 73.207 181.707 72.8477 181.402 72.543C181.098 72.2383 180.742 72 180.336 71.8281C179.93 71.6484 179.496 71.5586 179.035 71.5586H175.672ZM175.672 85H172.309V68.1953H179.035C179.652 68.1953 180.246 68.2773 180.816 68.4414C181.387 68.5977 181.918 68.8242 182.41 69.1211C182.91 69.4102 183.363 69.7617 183.77 70.1758C184.184 70.582 184.535 71.0352 184.824 71.5352C185.121 72.0352 185.348 72.5703 185.504 73.1406C185.668 73.7109 185.75 74.3047 185.75 74.9219C185.75 75.5 185.676 76.0625 185.527 76.6094C185.387 77.1562 185.18 77.6758 184.906 78.168C184.641 78.6602 184.312 79.1133 183.922 79.5273C183.531 79.9414 183.094 80.3008 182.609 80.6055L184.473 85H180.898L179.434 81.6133L175.672 81.6367V85ZM204.43 76.668C204.43 77.4648 204.324 78.2344 204.113 78.9766C203.91 79.7109 203.621 80.4023 203.246 81.0508C202.871 81.6914 202.418 82.2773 201.887 82.8086C201.355 83.3398 200.77 83.7969 200.129 84.1797C199.488 84.5547 198.797 84.8438 198.055 85.0469C197.312 85.2578 196.543 85.3633 195.746 85.3633C194.949 85.3633 194.18 85.2578 193.438 85.0469C192.703 84.8438 192.012 84.5547 191.363 84.1797C190.723 83.7969 190.137 83.3398 189.605 82.8086C189.074 82.2773 188.617 81.6914 188.234 81.0508C187.859 80.4023 187.566 79.7109 187.355 78.9766C187.152 78.2344 187.051 77.4648 187.051 76.668C187.051 75.8711 187.152 75.1016 187.355 74.3594C187.566 73.6172 187.859 72.9258 188.234 72.2852C188.617 71.6445 189.074 71.0586 189.605 70.5273C190.137 69.9961 190.723 69.543 191.363 69.168C192.012 68.793 192.703 68.5039 193.438 68.3008C194.18 68.0898 194.949 67.9844 195.746 67.9844C196.543 67.9844 197.312 68.0898 198.055 68.3008C198.797 68.5039 199.488 68.793 200.129 69.168C200.77 69.543 201.355 69.9961 201.887 70.5273C202.418 71.0586 202.871 71.6445 203.246 72.2852C203.621 72.9258 203.91 73.6172 204.113 74.3594C204.324 75.1016 204.43 75.8711 204.43 76.668ZM201.09 76.668C201.09 75.9336 200.949 75.2422 200.668 74.5938C200.387 73.9375 200.004 73.3711 199.52 72.8945C199.043 72.4102 198.477 72.0273 197.82 71.7461C197.172 71.4648 196.48 71.3242 195.746 71.3242C195.004 71.3242 194.309 71.4648 193.66 71.7461C193.012 72.0273 192.445 72.4102 191.961 72.8945C191.477 73.3711 191.094 73.9375 190.812 74.5938C190.531 75.2422 190.391 75.9336 190.391 76.668C190.391 77.4023 190.531 78.0938 190.812 78.7422C191.094 79.3828 191.477 79.9453 191.961 80.4297C192.445 80.9141 193.012 81.2969 193.66 81.5781C194.309 81.8594 195.004 82 195.746 82C196.48 82 197.172 81.8594 197.82 81.5781C198.477 81.2969 199.043 80.9141 199.52 80.4297C200.004 79.9453 200.387 79.3828 200.668 78.7422C200.949 78.0938 201.09 77.4023 201.09 76.668Z" fill="#F2994A"/>
<g filter="url(#filter0_d)">
<path d="M27.5332 59H19.1543V25.3965H6.52734V16.9883H40.1309V25.3965H27.5332V59ZM52.9922 25.3965V42.2129H61.4004C62.5527 42.2129 63.6367 41.998 64.6523 41.5684C65.668 41.1191 66.5566 40.5137 67.3184 39.752C68.0801 38.9902 68.6758 38.1016 69.1055 37.0859C69.5547 36.0508 69.7793 34.957 69.7793 33.8047C69.7793 32.6523 69.5547 31.5684 69.1055 30.5527C68.6758 29.5176 68.0801 28.6191 67.3184 27.8574C66.5566 27.0957 65.668 26.5 64.6523 26.0703C63.6367 25.6211 62.5527 25.3965 61.4004 25.3965H52.9922ZM52.9922 59H44.584V16.9883H61.4004C62.9434 16.9883 64.4277 17.1934 65.8535 17.6035C67.2793 17.9941 68.6074 18.5605 69.8379 19.3027C71.0879 20.0254 72.2207 20.9043 73.2363 21.9395C74.2715 22.9551 75.1504 24.0879 75.873 25.3379C76.6152 26.5879 77.1816 27.9258 77.5723 29.3516C77.9824 30.7773 78.1875 32.2617 78.1875 33.8047C78.1875 35.25 78.002 36.6562 77.6309 38.0234C77.2793 39.3906 76.7617 40.6895 76.0781 41.9199C75.4141 43.1504 74.5938 44.2832 73.6172 45.3184C72.6406 46.3535 71.5469 47.252 70.3359 48.0137L74.9941 59H66.0586L62.3965 50.5332L52.9922 50.5918V59ZM116.859 42.2129C116.859 44.5371 116.42 46.7246 115.541 48.7754C114.662 50.8066 113.461 52.584 111.938 54.1074C110.414 55.6113 108.627 56.8027 106.576 57.6816C104.545 58.5605 102.367 59 100.043 59C97.7188 59 95.5312 58.5605 93.4805 57.6816C91.4492 56.8027 89.6719 55.6113 88.1484 54.1074C86.6445 52.584 85.4531 50.8066 84.5742 48.7754C83.6953 46.7246 83.2559 44.5371 83.2559 42.2129V16.9883H91.6348V42.2129C91.6348 43.3652 91.8496 44.4492 92.2793 45.4648C92.7285 46.4805 93.334 47.3691 94.0957 48.1309C94.8574 48.8926 95.7461 49.498 96.7617 49.9473C97.7969 50.377 98.8906 50.5918 100.043 50.5918C101.195 50.5918 102.279 50.377 103.295 49.9473C104.33 49.498 105.229 48.8926 105.99 48.1309C106.752 47.3691 107.348 46.4805 107.777 45.4648C108.227 44.4492 108.451 43.3652 108.451 42.2129V16.9883H116.859V42.2129ZM157.699 54.6934C155.746 56.373 153.559 57.6621 151.137 58.5605C148.715 59.459 146.205 59.9082 143.607 59.9082C141.615 59.9082 139.691 59.6445 137.836 59.1172C136 58.6094 134.271 57.8867 132.65 56.9492C131.049 55.9922 129.584 54.8496 128.256 53.5215C126.928 52.1934 125.785 50.7285 124.828 49.127C123.891 47.5059 123.158 45.7773 122.631 43.9414C122.123 42.0859 121.869 40.1621 121.869 38.1699C121.869 36.1777 122.123 34.2539 122.631 32.3984C123.158 30.543 123.891 28.8145 124.828 27.2129C125.785 25.5918 126.928 24.1172 128.256 22.7891C129.584 21.4609 131.049 20.3281 132.65 19.3906C134.271 18.4336 136 17.7012 137.836 17.1934C139.691 16.666 141.615 16.4023 143.607 16.4023C146.205 16.4023 148.715 16.8516 151.137 17.75C153.559 18.6289 155.746 19.918 157.699 21.6172L153.246 28.9414C152.016 27.6133 150.561 26.5977 148.881 25.8945C147.201 25.1719 145.443 24.8105 143.607 24.8105C141.752 24.8105 140.014 25.1621 138.393 25.8652C136.771 26.5684 135.355 27.5254 134.145 28.7363C132.934 29.9277 131.977 31.3438 131.273 32.9844C130.57 34.6055 130.219 36.334 130.219 38.1699C130.219 40.0059 130.57 41.7344 131.273 43.3555C131.977 44.957 132.934 46.3633 134.145 47.5742C135.355 48.7852 136.771 49.7422 138.393 50.4453C140.014 51.1484 141.752 51.5 143.607 51.5C145.443 51.5 147.201 51.1484 148.881 50.4453C150.561 49.7227 152.016 48.6973 153.246 47.3691L157.699 54.6934ZM202.523 38.1699C202.523 40.1621 202.26 42.0859 201.732 43.9414C201.225 45.7773 200.502 47.5059 199.564 49.127C198.627 50.7285 197.494 52.1934 196.166 53.5215C194.838 54.8496 193.373 55.9922 191.771 56.9492C190.17 57.8867 188.441 58.6094 186.586 59.1172C184.73 59.6445 182.807 59.9082 180.814 59.9082C178.822 59.9082 176.898 59.6445 175.043 59.1172C173.207 58.6094 171.479 57.8867 169.857 56.9492C168.256 55.9922 166.791 54.8496 165.463 53.5215C164.135 52.1934 162.992 50.7285 162.035 49.127C161.098 47.5059 160.365 45.7773 159.838 43.9414C159.33 42.0859 159.076 40.1621 159.076 38.1699C159.076 36.1777 159.33 34.2539 159.838 32.3984C160.365 30.543 161.098 28.8145 162.035 27.2129C162.992 25.6113 164.135 24.1465 165.463 22.8184C166.791 21.4902 168.256 20.3574 169.857 19.4199C171.479 18.4824 173.207 17.7598 175.043 17.252C176.898 16.7246 178.822 16.4609 180.814 16.4609C182.807 16.4609 184.73 16.7246 186.586 17.252C188.441 17.7598 190.17 18.4824 191.771 19.4199C193.373 20.3574 194.838 21.4902 196.166 22.8184C197.494 24.1465 198.627 25.6113 199.564 27.2129C200.502 28.8145 201.225 30.543 201.732 32.3984C202.26 34.2539 202.523 36.1777 202.523 38.1699ZM194.174 38.1699C194.174 36.334 193.822 34.6055 193.119 32.9844C192.416 31.3438 191.459 29.9277 190.248 28.7363C189.057 27.5254 187.641 26.5684 186 25.8652C184.379 25.1621 182.65 24.8105 180.814 24.8105C178.959 24.8105 177.221 25.1621 175.6 25.8652C173.979 26.5684 172.562 27.5254 171.352 28.7363C170.141 29.9277 169.184 31.3438 168.48 32.9844C167.777 34.6055 167.426 36.334 167.426 38.1699C167.426 40.0059 167.777 41.7344 168.48 43.3555C169.184 44.957 170.141 46.3633 171.352 47.5742C172.562 48.7852 173.979 49.7422 175.6 50.4453C177.221 51.1484 178.959 51.5 180.814 51.5C182.65 51.5 184.379 51.1484 186 50.4453C187.641 49.7422 189.057 48.7852 190.248 47.5742C191.459 46.3633 192.416 44.957 193.119 43.3555C193.822 41.7344 194.174 40.0059 194.174 38.1699Z" fill="white"/>
</g>
<defs>
<filter id="filter0_d" x="0.527344" y="12.4023" width="207.996" height="55.5059" filterUnits="userSpaceOnUse" color-interpolation-filters="sRGB">
<feFlood flood-opacity="0" result="BackgroundImageFix"/>
<feColorMatrix in="SourceAlpha" type="matrix" values="0 0 0 0 0 0 0 0 0 0 0 0 0 0 0 0 0 0 127 0"/>
<feOffset dy="2"/>
<feGaussianBlur stdDeviation="3"/>
<feColorMatrix type="matrix" values="0 0 0 0 0 0 0 0 0 0 0 0 0 0 0 0 0 0 0.25 0"/>
<feBlend mode="normal" in2="BackgroundImageFix" result="effect1_dropShadow"/>
<feBlend mode="normal" in="SourceGraphic" in2="effect1_dropShadow" result="shape"/>
</filter>
</defs>
</svg>
